# xmcd
#
# Track frame offsets:
#	150
#	20400
#	36990
#	51153
#	66625
#	81795
#	94985
#	104770
#	116285
#	129713
#	143423
#	153408
#	169163
#	180605
#	194980
#	206660
#
# Disc length: 2936 seconds
#
# Revision: 0
# Processed by: cddbd v1.5.2PL0 Copyright (c) Steve Scherf et al.
# Submitted via: EasyCDDAExtractor 16.0.6.1
#
DISCID=ef0b7610
DTITLE=Συλλογικός δίσκος - Ρεμπέτικη ανθολογία-Moreas-2
DYEAR=1994
DGENRE=Ρεμπέτικη
TTITLE0=Δασκαλάκης Μιχάλης - Από κάτω απ' το ραδίκι [Μ. Δασκαλάκης]
TTITLE1=Λίντα Μαίρη-Τσιτσάνης Βασίλης - Είμαστε ζευγάρι φίνο [Β. Τσιτσάνης-Τσά
TTITLE1=καλος]
TTITLE2=Ρούκουνας Κώστας ή Σαμιωτάκης - Ελενίτσα [Κ. Ρούκουνας]
TTITLE3=Εσκενάζυ Ρόζα - Γιατί θες να μ' αφήσεις [Σ. Χρυσίνης-Κ. Ζήτης]
TTITLE4=Γαβριήλ Μαρίνος ή Μαρινάκης - Ο περιπλανώμενος [Μ. Γαβριήλ]
TTITLE5=Μοσχονάς Οδυσσέας - Δεν της κρατώ κακία [Οδ. Μοσχονάς]
TTITLE6=Χρηστάκης - Θα σ' έχω στα υπ' όψη [Τ. Σούκας-Ηρ. Παπασιδέρης]
TTITLE7=Μιχαλόπουλος Πάνος - Έξω στενοχώρια [Τ. Σούκας-Ηρ. Παπασιδέρης]
TTITLE8=Δασκαλάκης Μιχάλης - Βλάμης απ' το Μιλάνο [Μ. Δασκαλάκης]
TTITLE9=Μοσχονάς Οδυσσέας - Στερνό ηλιοβασίλεμα [Οδ. Μοσχονάς]
TTITLE10=Χρηστάκης - Σιγανοπαπαδιά [Τ. Σούκας-Ηρ. Παπασιδέρης]
TTITLE11=Εσκενάζυ Ρόζα - Πες μου γιατί [Δ. Μανήσαλης-Κ. Ψυχογιός]
TTITLE12=Μιχαλόπουλος Πάνος - Δεν θέλω ξεσκονίσματα [Τ. Σούκας-Ηρ. Παπασιδέρης
TTITLE12=]
TTITLE13=Ρούκουνας Κώστας ή Σαμιωτάκης - Φτωχομάνα Σμύρνη [Κ. Ρούκουνας]
TTITLE14=Γαβριήλ Μαρίνος ή Μαρινάκης - Φράγκο δεν θ' αφήσω [Μ. Γαβριήλ]
TTITLE15=Χρηστάκης - Είσαι πάντα στο ανάμεσα [Κ. Πανάγος-Χρ. Νικολόπουλος]
EXTD=
EXTT0=
EXTT1=
EXTT2=
EXTT3=
EXTT4=
EXTT5=
EXTT6=
EXTT7=
EXTT8=
EXTT9=
EXTT10=
EXTT11=
EXTT12=
EXTT13=
EXTT14=
EXTT15=
PLAYORDER=
